<svg width="256" height="256" viewBox="0 0 256 256" fill="none" xmlns="http://www.w3.org/2000/svg">
<path d="M128 256C198.692 256 256 198.692 256 128C256 57.3076 198.692 0 128 0C57.3076 0 0 57.3076 0 128C0 198.692 57.3076 256 128 256Z" fill="#0F8D9C"/>
<path d="M128 251.782C196.363 251.782 251.782 196.363 251.782 128C251.782 59.6371 196.363 4.21802 128 4.21802C59.6371 4.21802 4.21796 59.6371 4.21796 128C4.21796 196.363 59.6371 251.782 128 251.782Z" fill="white" stroke="white" stroke-miterlimit="10"/>
<path d="M128.082 250.038C195.482 250.038 250.12 195.4 250.12 128C250.12 60.6001 195.482 5.96167 128.082 5.96167C60.6818 5.96167 6.04335 60.6001 6.04335 128C6.04335 195.4 60.6818 250.038 128.082 250.038Z" fill="#159BAC"/>
<path d="M127.16 145.372V163.695H101.484L156.166 167.579V163.819H130.779L130.67 145.372H127.16Z" fill="white" stroke="white" stroke-miterlimit="10"/>
<path d="M101.484 170.653L156.166 171.428V167.611L101.484 163.728V170.653Z" fill="white" stroke="white" stroke-miterlimit="10"/>
<path d="M125.493 145.372V163.695L132.156 163.819V145.372H125.493Z" fill="white" stroke="white" stroke-miterlimit="10"/>
<path d="M88.3938 70.3332L84.0545 70.1797C82.3869 81.4762 82.3869 92.9563 84.0545 104.253C85.4811 113.754 86.7195 121.464 91.9827 129.568C93.7957 132.354 101.09 143.567 112.619 145.246C112.674 145.246 114.702 145.266 118.764 145.286C127.014 145.33 131.071 145.32 140.545 145.36C142.142 145.36 141.664 145.382 145.251 145.382C148.837 145.382 159.676 139.631 166.467 129.063C171.42 121.338 172.468 113.783 173.786 104.176C175.275 93.1505 175.192 81.9694 173.538 70.9673L169.194 70.997C169.865 83.1506 169.895 98.7865 167.366 113.932C166.786 117.414 165.91 121.833 162.908 126.172C157.555 133.855 149.199 135.983 145.246 136.669C141.858 136.765 137.523 136.852 132.471 136.86C130.871 136.86 128.391 136.86 125.394 136.817C121.154 136.76 115.641 136.629 109.117 136.322C105.669 135.198 99.2669 132.486 94.7963 125.808C91.9529 121.56 90.9919 117.352 90.3554 113.92C87.3734 97.8354 87.9257 79.3165 88.3938 70.3332Z" fill="white" stroke="white" stroke-miterlimit="10"/>
<path d="M75.6087 185.558H73.1492C72.9313 183.684 72.1494 182.747 70.8037 182.747C69.9368 182.747 69.283 182.983 68.8421 183.455C68.4012 183.927 68.1808 184.632 68.1808 185.57C68.1906 186.297 68.4533 186.998 68.9238 187.552L74.1573 194.212C75.0854 195.325 75.5985 196.725 75.6087 198.175V199.594C75.6346 201.04 75.1166 202.444 74.1573 203.527C73.1913 204.633 72.0272 205.187 70.665 205.189H68.1882C66.5486 205.189 65.3152 204.72 64.4879 203.782C63.6607 202.844 63.2479 201.448 63.2495 199.594H65.7263C65.7115 199.787 65.704 199.941 65.704 200.052C65.683 200.382 65.7426 200.713 65.8777 201.015C66.0127 201.317 66.2192 201.581 66.4793 201.786C66.9652 202.17 67.5665 202.378 68.1858 202.378C69.0675 202.378 69.7024 202.137 70.0904 201.655C70.4784 201.172 70.6716 200.472 70.67 199.554C70.6643 198.833 70.4058 198.136 69.9393 197.585L64.6935 190.94C63.7642 189.828 63.2511 188.427 63.2421 186.977V185.558C63.2153 184.109 63.7333 182.703 64.6935 181.617C65.1156 181.099 65.6482 180.681 66.2524 180.395C66.8566 180.109 67.5172 179.961 68.1858 179.963H70.6625C73.7585 179.963 75.4072 181.828 75.6087 185.558Z" fill="white"/>
<path d="M80.5746 185.558H85.5282V188.369C85.5282 187.423 85.737 186.718 86.1548 186.254C86.5734 185.791 87.1901 185.558 88.0124 185.558H90.4892C91.8448 185.558 93.0072 186.112 93.9765 187.22C94.9423 188.311 95.4622 189.726 95.4328 191.183V199.589C95.4629 201.041 94.9426 202.45 93.9765 203.534C93.0056 204.634 91.8431 205.184 90.4892 205.184H85.5183V210.779H80.5647L80.5746 185.558ZM85.5282 202.368H88.005C88.3383 202.367 88.6674 202.294 88.9692 202.152C89.2709 202.01 89.5378 201.804 89.7511 201.548C90.2401 201.012 90.5059 200.309 90.4941 199.584V191.178C90.5091 190.446 90.2431 189.737 89.7511 189.196C89.5378 188.94 89.2709 188.734 88.9692 188.592C88.6674 188.451 88.3383 188.377 88.005 188.376C87.6702 188.372 87.3388 188.443 87.0352 188.584C86.7316 188.725 86.4637 188.933 86.2514 189.191C85.7615 189.734 85.4959 190.442 85.5084 191.173L85.5282 202.368Z" fill="white"/>
<path d="M115.225 196.773H105.318V199.584C105.305 200.304 105.564 201.003 106.043 201.541C106.256 201.801 106.524 202.011 106.829 202.154C107.133 202.297 107.466 202.37 107.802 202.368H110.279C111.918 202.368 112.738 201.44 112.738 199.584H115.215C114.828 203.314 113.177 205.179 110.261 205.179H105.315C103.961 205.179 102.799 204.629 101.828 203.529C100.862 202.445 100.341 201.036 100.372 199.584V191.178C100.342 189.72 100.864 188.305 101.833 187.215C102.809 186.117 103.969 185.568 105.315 185.568H110.281C111.637 185.568 112.799 186.122 113.768 187.23C114.734 188.321 115.254 189.736 115.225 191.193V196.773ZM105.318 193.962H110.284V191.178C110.297 190.447 110.031 189.738 109.541 189.196C109.328 188.938 109.061 188.729 108.759 188.586C108.456 188.443 108.125 188.369 107.791 188.369C107.456 188.369 107.125 188.443 106.823 188.586C106.52 188.729 106.253 188.938 106.041 189.196C105.555 189.741 105.294 190.449 105.31 191.178L105.318 193.962Z" fill="white"/>
<path d="M130.078 193.964V191.178C130.091 190.447 129.826 189.738 129.335 189.196C129.123 188.938 128.856 188.73 128.553 188.587C128.251 188.444 127.921 188.369 127.586 188.369H125.11C123.645 188.369 122.824 189.305 122.648 191.178H120.171C120.549 187.431 122.2 185.558 125.124 185.558H130.078C131.434 185.558 132.596 186.112 133.565 187.22C134.531 188.311 135.051 189.726 135.022 191.183V205.184H130.068V202.368C129.875 204.244 129.049 205.181 127.591 205.179H125.11C123.754 205.179 122.592 204.629 121.622 203.529C120.656 202.445 120.136 201.036 120.166 199.584V199.557C120.137 198.104 120.659 196.695 121.627 195.611C122.605 194.513 123.766 193.964 125.11 193.964H130.078ZM130.078 196.775H127.586C127.252 196.775 126.922 196.848 126.619 196.991C126.316 197.133 126.049 197.34 125.835 197.597C125.347 198.133 125.081 198.834 125.092 199.559V199.586C125.079 200.307 125.339 201.005 125.818 201.543C126.032 201.802 126.3 202.01 126.604 202.153C126.908 202.296 127.24 202.37 127.575 202.37C127.911 202.37 128.242 202.296 128.546 202.153C128.85 202.01 129.118 201.802 129.333 201.543C129.811 201.005 130.07 200.306 130.058 199.586L130.078 196.775Z" fill="white"/>
<path d="M139.97 205.179V179.963H144.924V192.57L152.354 185.558H157.308L146.933 195.381L157.308 205.179H152.334L144.904 198.165V205.179H139.97Z" fill="white"/>
<path d="M169.672 179.963H174.625V199.584C174.648 201.033 174.124 202.437 173.159 203.517C172.188 204.623 171.026 205.177 169.672 205.179H164.718C163.363 205.179 162.2 204.629 161.231 203.529C160.265 202.445 159.745 201.036 159.775 199.584V179.963H164.728V199.584C164.716 200.304 164.974 201.002 165.451 201.541C165.666 201.799 165.934 202.007 166.238 202.15C166.542 202.293 166.874 202.367 167.21 202.367C167.546 202.367 167.878 202.293 168.181 202.15C168.485 202.007 168.754 201.799 168.968 201.541C169.447 201.002 169.706 200.304 169.694 199.584L169.672 179.963Z" fill="white"/>
<path d="M179.559 185.558H184.5V188.369C184.5 187.423 184.71 186.718 185.129 186.254C185.549 185.79 186.167 185.558 186.985 185.558H189.461C190.814 185.558 191.976 186.112 192.949 187.22C193.914 188.311 194.434 189.726 194.405 191.183V199.589C194.435 201.041 193.915 202.45 192.949 203.534C191.978 204.634 190.815 205.184 189.461 205.184H184.5V210.779H179.559V185.558ZM184.5 202.368H186.977C187.308 202.366 187.635 202.292 187.935 202.15C188.234 202.008 188.499 201.803 188.711 201.548C189.201 201.012 189.467 200.31 189.454 199.584V191.178C189.47 190.446 189.204 189.737 188.711 189.196C188.499 188.941 188.234 188.736 187.935 188.594C187.635 188.453 187.308 188.378 186.977 188.376C186.643 188.371 186.311 188.441 186.008 188.582C185.704 188.724 185.437 188.932 185.226 189.191C184.736 189.734 184.471 190.442 184.483 191.173L184.5 202.368Z" fill="white"/>
<path d="M139.839 106.858V100.701H160.716V91.5716H139.839V85.5654H160.716V76.436H139.839V70.6849H160.716V62.9698C160.716 60.6394 160.257 58.3318 159.366 56.1788C158.474 54.0258 157.167 52.0694 155.52 50.4215C153.872 48.7736 151.916 47.4664 149.763 46.5745C147.61 45.6827 145.302 45.2236 142.972 45.2236H114.677C112.347 45.2236 110.04 45.6827 107.887 46.5745C105.734 47.4664 103.778 48.7736 102.13 50.4215C100.482 52.0694 99.1752 54.0258 98.2837 56.1788C97.3921 58.3318 96.9334 60.6394 96.9337 62.9698V70.4917C104.793 70.6255 117.365 70.4917 117.365 70.4917V76.6391H96.9337V85.7685H117.365V91.7747H96.9337V100.904H117.365V106.655H96.9337V115.995C96.9334 118.325 97.3922 120.633 98.2837 122.786C99.1753 124.939 100.482 126.895 102.13 128.543C103.778 130.19 105.734 131.497 107.887 132.389C110.04 133.28 112.347 133.739 114.677 133.739H142.972C145.302 133.739 147.61 133.28 149.763 132.389C151.916 131.497 153.872 130.19 155.52 128.543C157.167 126.895 158.474 124.939 159.366 122.786C160.257 120.633 160.716 118.325 160.716 115.995V106.843C152.555 106.717 139.839 106.858 139.839 106.858Z" fill="white" stroke="white" stroke-miterlimit="10"/>
</svg>
